<svg xmlns="http://www.w3.org/2000/svg" width="24" height="24" fill="none"><path d="M11.826 1.812c-.982.28-7.85 2.417-7.936 2.469a.947.947 0 0 0-.207.187l-.081.112v4.733c0 3.668.011 4.793.05 5 .37 2.006 1.93 3.948 4.713 5.866 1.329.913 3.32 2.021 3.637 2.021.315 0 2.307-1.108 3.636-2.021 2.783-1.918 4.343-3.86 4.713-5.866.039-.207.05-1.332.05-5V4.58l-.081-.112a.947.947 0 0 0-.207-.187c-.152-.092-7.839-2.453-8.053-2.477a.842.842 0 0 0-.234.008Zm3.812 2.313 3.614 1.109v4.234c0 2.756-.016 4.343-.043 4.546-.086.666-.445 1.48-.951 2.173-.324.439-1.1 1.264-1.61 1.71-.975.858-2.25 1.731-3.691 2.537-.722.402-.92.498-1.01.474-.242-.064-2.007-1.1-2.85-1.67-1.383-.941-2.642-2.086-3.352-3.05-.506-.695-.865-1.508-.95-2.174-.028-.203-.044-1.79-.044-4.546V5.234L8.33 4.133a346.96 346.96 0 0 1 3.633-1.108c.03-.004 1.684.49 3.675 1.1Z" fill="#fff"/><path d="M11.826 1.812c-.982.28-7.85 2.417-7.936 2.469a.947.947 0 0 0-.207.187l-.081.112v4.733c0 3.668.011 4.793.05 5 .37 2.006 1.93 3.948 4.713 5.866 1.329.913 3.32 2.021 3.637 2.021.315 0 2.307-1.108 3.636-2.021 2.783-1.918 4.343-3.86 4.713-5.866.039-.207.05-1.332.05-5V4.58l-.081-.112a.947.947 0 0 0-.207-.187c-.152-.092-7.839-2.453-8.053-2.477a.842.842 0 0 0-.234.008Zm3.812 2.313 3.614 1.109v4.234c0 2.756-.016 4.343-.043 4.546-.086.666-.445 1.48-.951 2.173-.324.439-1.1 1.264-1.61 1.71-.975.858-2.25 1.731-3.691 2.537-.722.402-.92.498-1.01.474-.242-.064-2.007-1.1-2.85-1.67-1.383-.941-2.642-2.086-3.352-3.05-.506-.695-.865-1.508-.95-2.174-.028-.203-.044-1.79-.044-4.546V5.234L8.33 4.133a346.96 346.96 0 0 1 3.633-1.108c.03-.004 1.684.49 3.675 1.1Z"/><path d="m9.3 11.4 2.7 3 3-4.5" stroke="#fff" stroke-linecap="round"/></svg>