<svg width="24" height="24" fill="none" xmlns="http://www.w3.org/2000/svg"><mask id="a" style="mask-type:luminance" maskUnits="userSpaceOnUse" x="0" y="0" width="24" height="24"><path d="M24 0H0v24h24V0Z" fill="#fff"/></mask><g mask="url(#a)"><path d="M8.39 2.105a1.87 1.87 0 0 0-.852.553c-.413.445-.553.895-.553 1.804v.549l-2.752.014-2.756.014-.324.16a2.14 2.14 0 0 0-.886.806c-.28.478-.272.131-.257 7.617l.014 6.839.103.248c.225.553.68.985 1.247 1.182.262.093.389.093 10.617.093 11.503 0 10.56.028 11.104-.323a2.16 2.16 0 0 0 .779-.952l.103-.248.014-6.84c.014-7.485.023-7.138-.258-7.616a2.162 2.162 0 0 0-.881-.807l-.328-.159-2.752-.014-2.756-.014v-.549c0-.642-.085-1.092-.267-1.42-.179-.333-.647-.76-.985-.895l-.272-.108-3.422-.01c-3.168-.009-3.44-.004-3.68.076Zm7.009.984c.103.047.243.145.314.22.225.244.272.427.272 1.097v.61H8.016v-.633c0-.699.042-.858.314-1.111.29-.277.169-.267 3.67-.267 3.028-.005 3.22 0 3.399.084Zm7.059 3.042c.183.094.29.192.394.361l.14.225v4.566l-.14.225a.892.892 0 0 1-.394.36L22.21 12h-8.194v-.258a1.26 1.26 0 0 0-.066-.417c-.131-.314-.103-.31-1.95-.31s-1.819-.004-1.95.31a1.275 1.275 0 0 0-.065.417V12H1.79l-.249-.131a.892.892 0 0 1-.393-.361l-.141-.225V6.717l.14-.225a.892.892 0 0 1 .394-.36L1.791 6h20.418l.249.131Zm-9.473 6.877v1.008h-1.969V12h1.969v1.008ZM1.42 12.895c.263.085.497.09 4.42.09h4.145v.773c0 .872.042 1.05.276 1.167.211.112 3.267.112 3.478 0 .235-.117.277-.295.277-1.167v-.774h4.144c3.923 0 4.157-.004 4.42-.089.15-.046.31-.103.356-.121.08-.033.08.135.07 3.735l-.014 3.774-.14.225a.892.892 0 0 1-.394.36L22.21 21H1.79l-.248-.131a.892.892 0 0 1-.393-.361l-.141-.225-.014-3.774c-.01-3.6-.01-3.768.07-3.736.047.02.206.075.356.122Z" fill="#fff" stroke="#fff" stroke-width=".1"/></g></svg>