<svg xmlns="http://www.w3.org/2000/svg" width="24" height="24" fill="none"><path d="M12.127 3.237c-1.647.23-3.303.936-4.568 1.949a13.173 13.173 0 0 0-1.426 1.408c-.135.166-.36.477-.504.693l-.261.387-1.45-.005L2.47 7.66l-.13.136c-.167.161-.172.315-.028.486l.108.126 2.574.044-.247.514c-.149.31-.248.571-.248.661 0 .279.28.445.527.315.112-.054.202-.211.526-.909.216-.463.486-.985.599-1.161a8.556 8.556 0 0 1 7.213-3.942c1.647 0 3.155.437 4.586 1.328 1.012.63 2.06 1.691 2.7 2.736 1.899 3.104 1.638 7.082-.648 9.886-.338.414-1.107 1.152-1.508 1.449a8.543 8.543 0 0 1-5.143 1.701c-2.16 0-4.104-.756-5.783-2.245-.567-.505-.652-.536-.868-.325-.203.208-.176.325.153.666.77.806 2.007 1.611 3.168 2.062 1.593.612 3.519.769 5.202.422a9.33 9.33 0 0 0 6.538-5.102 9.304 9.304 0 0 0-1.804-10.612c-1.382-1.381-3.078-2.258-5.085-2.618-.59-.108-2.106-.131-2.745-.041Z" fill="#fff"/><path d="m13.123 6.004-.117.09v6.548l.148.14c.077.076.747.625 1.485 1.223 1.18.95 1.364 1.085 1.499 1.085.279 0 .463-.293.333-.535-.023-.046-.648-.576-1.395-1.18l-1.35-1.093V6.103l-.104-.094c-.135-.126-.342-.126-.5-.005ZM.458 11.895a.367.367 0 0 0 .131.626c.094.031.706.049 1.8.049h1.66v.211c0 .343.086 1.018.14 1.125.108.207.44.239.608.054.09-.099.094-.184.04-.886l-.036-.504h1.508c1.552 0 1.75-.018 1.836-.18.08-.153.053-.382-.059-.486l-.104-.099H4.27c-3.668 0-3.712 0-3.812.09Zm19.625.342c-.094.095-.108.144-.085.279.031.211.166.324.396.324s.333-.059.387-.225c.058-.162-.005-.387-.126-.45-.167-.09-.446-.054-.572.072ZM2.255 15.972c-.18.149-.193.374-.027.536.104.108.14.112.608.112.432 0 .504-.009.585-.09.193-.194.153-.495-.09-.617-.068-.03-.284-.058-.527-.058-.378 0-.423.009-.549.117Zm2.897-.063c-.23.135-.275.418-.09.598l.108.113h4.513l.135-.135c.113-.117.13-.162.108-.284a.507.507 0 0 0-.121-.234c-.086-.085-.153-.09-2.327-.099-1.633-.008-2.259 0-2.326.041Zm7.968 3.056c-.161.125-.17.472-.013.616.144.135.392.13.518-.005.148-.157.14-.49-.018-.611a.458.458 0 0 0-.243-.095.458.458 0 0 0-.243.095Z" fill="#fff"/><path d="M12.127 3.237c-1.647.23-3.303.936-4.568 1.949a13.173 13.173 0 0 0-1.426 1.408c-.135.166-.36.477-.504.693l-.261.387-1.45-.005L2.47 7.66l-.13.136c-.167.161-.172.315-.028.486l.108.126 2.574.044-.247.514c-.149.31-.248.571-.248.661 0 .279.28.445.527.315.112-.054.202-.211.526-.909.216-.463.486-.985.599-1.161a8.556 8.556 0 0 1 7.213-3.942c1.647 0 3.155.437 4.586 1.328 1.012.63 2.06 1.691 2.7 2.736 1.899 3.104 1.638 7.082-.648 9.886-.338.414-1.107 1.152-1.508 1.449a8.543 8.543 0 0 1-5.143 1.701c-2.16 0-4.104-.756-5.783-2.245-.567-.505-.652-.536-.868-.325-.203.208-.176.325.153.666.77.806 2.007 1.611 3.168 2.062 1.593.612 3.519.769 5.202.422a9.33 9.33 0 0 0 6.538-5.102 9.304 9.304 0 0 0-1.804-10.612c-1.382-1.381-3.078-2.258-5.085-2.618-.59-.108-2.106-.131-2.745-.041Z" stroke="#fff" stroke-width=".3"/><path d="m13.123 6.004-.117.09v6.548l.148.14c.077.076.747.625 1.485 1.223 1.18.95 1.364 1.085 1.499 1.085.279 0 .463-.293.333-.535-.023-.046-.648-.576-1.395-1.18l-1.35-1.093V6.103l-.104-.094c-.135-.126-.342-.126-.5-.005ZM.458 11.895a.367.367 0 0 0 .131.626c.094.031.706.049 1.8.049h1.66v.211c0 .343.086 1.018.14 1.125.108.207.44.239.608.054.09-.099.094-.184.04-.886l-.036-.504h1.508c1.552 0 1.75-.018 1.836-.18.08-.153.053-.382-.059-.486l-.104-.099H4.27c-3.668 0-3.712 0-3.812.09Zm19.625.342c-.094.095-.108.144-.085.279.031.211.166.324.396.324s.333-.059.387-.225c.058-.162-.005-.387-.126-.45-.167-.09-.446-.054-.572.072ZM2.255 15.972c-.18.149-.193.374-.027.536.104.108.14.112.608.112.432 0 .504-.009.585-.09.193-.194.153-.495-.09-.617-.068-.03-.284-.058-.527-.058-.378 0-.423.009-.549.117Zm2.897-.063c-.23.135-.275.418-.09.598l.108.113h4.513l.135-.135c.113-.117.13-.162.108-.284a.507.507 0 0 0-.121-.234c-.086-.085-.153-.09-2.327-.099-1.633-.008-2.259 0-2.326.041Zm7.968 3.056c-.161.125-.17.472-.013.616.144.135.392.13.518-.005.148-.157.14-.49-.018-.611a.458.458 0 0 0-.243-.095.458.458 0 0 0-.243.095Z" stroke="#fff" stroke-width=".3"/></svg>