<svg width="24" height="24" fill="none" xmlns="http://www.w3.org/2000/svg"><path fill="#fff" d="M11.367.857h1.173v21.895h-1.173z"/><path fill="#fff" d="m12.54 5.142-.83.83-4.285-4.286.83-.829z"/><path fill="#fff" d="m16.45 1.687-.83-.83-4.285 4.285.83.83zm-5.122 16.811.83-.83 4.284 4.286-.83.83z"/><path fill="#fff" d="m7.418 21.954.83.83 4.284-4.285-.829-.83zm14.307-4.821-.587 1.016L2.177 7.2l.586-1.016z"/><path fill="#fff" d="m17.431 16.005-.303-1.133 5.853-1.568.304 1.133z"/><path fill="#fff" d="m18.467 21.12 1.133-.304-1.569-5.854-1.133.304zm-12-12.842.304 1.133L.917 10.98.614 9.847z"/><path fill="#fff" d="m5.428 3.164-1.133.304L5.863 9.32l1.133-.303zm15.535 2.827.587 1.016L2.588 17.955l-.586-1.016z"/><path fill="#fff" d="m17.838 9.15-1.133-.304 1.568-5.853 1.133.303z"/><path fill="#fff" d="m22.787 10.808.304-1.133-5.854-1.569-.303 1.133zM5.666 14.779l1.133.304-1.568 5.853-1.133-.304z"/><path fill="#fff" d="m.717 13.121-.304 1.133 5.854 1.569.303-1.133z"/></svg>