<svg width="24" height="24" fill="none" xmlns="http://www.w3.org/2000/svg"><path d="M17.581 21H6.42C2.344 21 0 18.957 0 15.405v-6.81C0 5.043 2.344 3 6.419 3H17.58C21.656 3 24 5.043 24 8.595v6.81C24 18.957 21.656 21 17.581 21ZM6.42 4.46c-3.193 0-4.745 1.352-4.745 4.135v6.81c0 2.783 1.552 4.136 4.745 4.136h11.16c3.193 0 4.745-1.353 4.745-4.136v-6.81c0-2.783-1.552-4.136-4.745-4.136H6.42Z" fill="#BDBDBD"/><path d="M12.002 13.87c-.84 0-1.69-.26-2.34-.79L3.002 5.5a.748.748 0 0 1 .93-1.17l6.66 7.58c.76.61 2.05.61 2.81 0l6.6-7.58c.32-.26.8-.21 1.05.12.26.32.21.8-.12 1.05l-6.6 7.58c-.64.53-1.49.79-2.33.79Z" fill="#BDBDBD"/><path d="m20.932 18.37-6.003-7.54-.93 1.17 6.003 7.54a.748.748 0 0 0 .93-1.17Zm-17 1.17L9.999 12l-.93-1.17-6.067 7.54c-.33.25-.38.73-.12 1.05.25.33.73.38 1.05.12Z" fill="#BDBDBD"/></svg>