<svg width="24" height="24" fill="none" xmlns="http://www.w3.org/2000/svg"><path d="M11.997 13.592A3.715 3.715 0 0 1 8.285 9.88a3.707 3.707 0 0 1 3.712-3.703A3.715 3.715 0 0 1 15.71 9.89a3.707 3.707 0 0 1-3.712 3.703Zm0-5.976a2.278 2.278 0 0 0-2.273 2.273 2.272 2.272 0 0 0 2.273 2.273 2.272 2.272 0 0 0 2.274-2.273 2.278 2.278 0 0 0-2.274-2.273Z" fill="#BDBDBD"/><path d="M11.998 23.5c-.96-.48-2.849-2.206-3.962-3.27-2.83-2.725-5.956-7.07-4.776-12.24 1.064-4.69 5.16-6.791 8.738-6.791h.01c3.577 0 7.673 2.1 8.738 6.8 1.17 5.17-1.957 9.506-4.787 12.23-1.112 1.065-3.002 2.791-3.961 3.271Zm0-20.862c-2.791 0-6.379 1.486-7.328 5.669-1.036 4.517 1.803 8.412 4.374 10.877 2.954 2.833 2.954 2.852 5.918 0 2.56-2.465 5.4-6.36 4.383-10.877-.959-4.183-4.556-5.67-7.347-5.67Z" fill="#BDBDBD"/></svg>