<svg width="24" height="24" fill="none" xmlns="http://www.w3.org/2000/svg"><path d="M11.75 22.5C5.82 22.5 1 17.68 1 11.75S5.82 1 11.75 1 22.5 5.82 22.5 11.75 17.68 22.5 11.75 22.5Zm0-20c-5.1 0-9.25 4.15-9.25 9.25S6.65 21 11.75 21 21 16.85 21 11.75 16.85 2.5 11.75 2.5Z" fill="#BDBDBD"/><path d="M14.274 7.817c.806-.297 1.586.493 1.28 1.295l-2.643 6.922c-.32.84-1.5.863-1.854.036l-.976-2.286a1 1 0 0 0-.513-.521l-2.317-1.03c-.82-.365-.782-1.542.06-1.853l6.963-2.563Z" stroke="#BDBDBD" stroke-width="1.3"/></svg>