<svg width="48" height="48" fill="none" xmlns="http://www.w3.org/2000/svg"><path d="M28.4 24.9h-10c-.82 0-1.5-.68-1.5-1.5s.68-1.5 1.5-1.5h10c.82 0 1.5.68 1.5 1.5s-.68 1.5-1.5 1.5Z" fill="#1C1C1C"/><path d="M23.4 29.9c-.82 0-1.5-.68-1.5-1.5v-10c0-.82.68-1.5 1.5-1.5s1.5.68 1.5 1.5v10c0 .82-.68 1.5-1.5 1.5Z" fill="#1C1C1C"/><path d="M23 43.5C11.7 43.5 2.5 34.3 2.5 23S11.7 2.5 23 2.5 43.5 11.7 43.5 23 34.3 43.5 23 43.5Zm0-38C13.34 5.5 5.5 13.36 5.5 23S13.34 40.5 23 40.5 40.5 32.64 40.5 23 32.66 5.5 23 5.5Zm21 40c-.38 0-.76-.14-1.06-.44l-4-4c-.58-.58-.58-1.54 0-2.12.58-.58 1.54-.58 2.12 0l4 4c.58.58.58 1.54 0 2.12-.3.3-.68.44-1.06.44Z" fill="#1C1C1C"/></svg>