<svg width="112" height="56" fill="none" xmlns="http://www.w3.org/2000/svg"><g clip-path="url(#a)"><mask id="b" style="mask-type:luminance" maskUnits="userSpaceOnUse" x="0" y="0" width="112" height="57"><path d="M.977 56.563h110.232V.127H.977v56.436Z" fill="#fff"/></mask><g mask="url(#b)"><path fill-rule="evenodd" clip-rule="evenodd" d="m60.204 26.073-8.39.015 4.226-10.911 4.163 10.818v.079-.001Zm-43.957-11.62h6.768c7.544 0 7.813 7.437 5.17 9.93-1.305 1.227-3.1 1.665-4.86 1.665h-7.08V14.453h.002Zm82.968 31.614c3.245 0 3.245-5.042 0-5.067H83.921l.024-29.039c-.024-3.245-4.9-3.245-4.9 0L79.02 44.27c0 .935.678 1.799 1.632 1.799h18.563l-.001-.001Zm-70.654-.91c.186.28.396.49.605.653.164.094.305.188.467.257 1.939.84 4.483-1.423 2.988-3.664l-8.214-12c2.38 0 6.396-1.167 8.17-3.992 1.074-1.657 1.657-3.525 1.797-5.58.163-2.661-.583-4.994-2.264-7.002-1.962-2.36-4.808-3.643-8.54-3.875h-10.6c-1.797 0-1.727.932-1.702 2.052V43.78c0 3.244 4.879 3.244 4.901 0V30.476h2.592l9.802 14.683-.003-.001ZM58.953 11.19c-.748-1.212-1.61-1.89-2.873-1.89-1.494 0-2.569.91-3.361 2.24-.303.514-.584 1.144-.841 1.867L40.464 42.822c-1.167 3.035 3.384 4.788 4.576 1.776l5.345-14.008h11.507l5.253 14.008c1.19 3.012 5.741 1.259 4.576-1.776L60.023 13.456c-.328-.888-.677-1.657-1.075-2.266M5.933 5.097h100.021v45.031H5.934V5.097ZM.96 52.81a2.264 2.264 0 0 0 2.288 2.288h105.395c1.261 0 2.311-1.005 2.311-2.288V2.384c0-1.259-1.05-2.287-2.311-2.287H3.247A2.278 2.278 0 0 0 .96 2.385V52.81Z" fill="#FE5100"/></g></g><defs><clipPath id="a"><path fill="#fff" d="M0 0h112v56H0z"/></clipPath></defs></svg>