<svg width="56" height="56" fill="none" xmlns="http://www.w3.org/2000/svg"><path fill="#0075FF" d="M26.527 2h2.737v51.089h-2.737z"/><path fill="#0075FF" d="m29.26 12-1.936 1.934-9.999-9.999L19.26 2z"/><path fill="#0075FF" d="M38.383 3.935 36.447 2l-9.999 10 1.936 1.935zM26.436 43.164l1.935-1.936 10 10-1.936 1.935z"/><path fill="#0075FF" d="m17.313 51.228 1.935 1.935 10-10-1.936-1.935zm33.392-11.252-1.368 2.37L5.093 16.803l1.368-2.37z"/><path fill="#0075FF" d="m40.68 37.346-.71-2.644 13.66-3.66.708 2.644z"/><path fill="#0075FF" d="m43.098 49.279 2.643-.709-3.66-13.659-2.643.709zM15.102 19.317l.708 2.644-13.66 3.66-.708-2.644z"/><path fill="#0075FF" d="m12.678 7.384-2.644.709 3.66 13.659 2.644-.709zM48.92 13.98l1.368 2.37L6.044 41.895l-1.369-2.37z"/><path fill="#0075FF" d="m41.627 21.349-2.644-.709 3.66-13.659 2.644.709z"/><path fill="#0075FF" d="m53.168 25.218.708-2.644-13.659-3.66-.708 2.644zm-39.943 9.267 2.644.708-3.66 13.66-2.644-.709z"/><path fill="#0075FF" d="m1.678 30.616-.709 2.643 13.66 3.66.708-2.643z"/></svg>