<svg xmlns="http://www.w3.org/2000/svg" width="24" height="24" viewBox="0 0 24 24" fill="none">
  <path d="M12.1268 3.23699C10.4797 3.46653 8.82371 4.17299 7.5592 5.1855C7.18124 5.48704 6.44771 6.21155 6.13273 6.59402C5.99776 6.76048 5.77273 7.07104 5.62873 7.28704L5.36771 7.67402L3.91878 7.6695L2.46976 7.66048L2.3392 7.79555C2.17273 7.9575 2.16822 8.11053 2.31222 8.28151L2.42022 8.40755L4.99427 8.45248L4.74678 8.96551C4.59827 9.27597 4.4992 9.53699 4.4992 9.62704C4.4992 9.90602 4.77827 10.0725 5.02576 9.94202C5.13827 9.88797 5.22822 9.73053 5.55222 9.03299C5.76822 8.56951 6.03827 8.04755 6.15078 7.87197C7.7392 5.40602 10.4392 3.93002 13.3642 3.93002C15.0112 3.93002 16.5188 4.36653 17.9498 5.25751C18.9623 5.88755 20.0108 6.9495 20.6498 7.9935C22.5487 11.0985 22.2877 15.0765 20.0018 17.88C19.6642 18.294 18.8948 19.032 18.4943 19.329C16.9778 20.4495 15.2228 21.03 13.3508 21.03C11.1908 21.03 9.24678 20.274 7.56822 18.7845C7.00124 18.2805 6.91571 18.249 6.69971 18.4605C6.49724 18.6676 6.52422 18.7845 6.85273 19.1265C7.62227 19.932 8.85971 20.7375 10.0207 21.1876C11.6138 21.7996 13.5397 21.957 15.2228 21.6105C18.0892 21.0165 20.4967 19.14 21.7612 16.5076C23.4757 12.948 22.7512 8.69997 19.9567 5.89648C18.5752 4.51504 16.8788 3.63751 14.8717 3.27751C14.2823 3.16951 12.7658 3.14704 12.1268 3.23699Z" fill="white"/>
  <path d="M13.1228 6.00448L13.0059 6.09452V12.642L13.1544 12.7815C13.2309 12.858 13.9013 13.4069 14.6393 14.0055C15.8184 14.9549 16.0028 15.09 16.1379 15.09C16.4168 15.09 16.6013 14.7975 16.4708 14.5545C16.4483 14.5095 15.8229 13.9785 15.0758 13.3755L13.7259 12.282V6.10345L13.6224 6.00899C13.4873 5.88294 13.2803 5.88294 13.1228 6.00448Z" fill="white"/>
  <path d="M0.458463 11.895C0.246975 12.093 0.314464 12.426 0.589024 12.5205C0.683488 12.552 1.29549 12.57 2.38902 12.57H4.04954V12.7815C4.04954 13.1236 4.13498 13.7985 4.18902 13.9065C4.29702 14.1135 4.62995 14.145 4.79651 13.9605C4.88646 13.8615 4.89098 13.776 4.83702 13.074L4.80102 12.57H6.30851C7.86102 12.57 8.05898 12.552 8.14451 12.39C8.22554 12.237 8.19846 12.0076 8.08595 11.904L7.98246 11.805H4.26995C0.602463 11.805 0.557535 11.805 0.458463 11.895Z" fill="white"/>
  <path d="M20.0832 12.237C19.9888 12.3315 19.9752 12.381 19.9978 12.516C20.0293 12.7275 20.1642 12.84 20.3938 12.84C20.6232 12.84 20.7267 12.7815 20.7808 12.6151C20.8392 12.453 20.7762 12.228 20.6547 12.165C20.4882 12.0751 20.2093 12.1111 20.0832 12.237Z" fill="white"/>
  <path d="M2.25522 15.972C2.07522 16.1205 2.06168 16.3455 2.22824 16.5075C2.33173 16.6155 2.36773 16.62 2.83573 16.62C3.26773 16.62 3.33973 16.611 3.42076 16.5301C3.6142 16.3365 3.57368 16.035 3.33071 15.9135C3.26322 15.8821 3.04722 15.855 2.80424 15.855C2.4262 15.855 2.38117 15.864 2.25522 15.972Z" fill="white"/>
  <path d="M5.15161 15.909C4.92207 16.044 4.87714 16.3275 5.06165 16.5075L5.16965 16.62H9.68309L9.81807 16.485C9.93058 16.368 9.94863 16.323 9.92607 16.2015C9.90812 16.1205 9.85858 16.017 9.80463 15.9675C9.71909 15.882 9.65161 15.8775 7.47807 15.8685C5.84463 15.8595 5.21909 15.8685 5.15161 15.909Z" fill="white"/>
  <path d="M13.1208 18.9645C12.9589 19.0904 12.9498 19.437 13.1074 19.581C13.2514 19.716 13.4989 19.7115 13.6248 19.5765C13.7733 19.419 13.7644 19.0859 13.6069 18.9645C13.5394 18.9104 13.4314 18.8699 13.3639 18.8699C13.2964 18.8699 13.1884 18.9104 13.1208 18.9645Z" fill="white"/>
  <path d="M12.1268 3.23699C10.4797 3.46653 8.82371 4.17299 7.5592 5.1855C7.18124 5.48704 6.44771 6.21155 6.13273 6.59402C5.99776 6.76048 5.77273 7.07104 5.62873 7.28704L5.36771 7.67402L3.91878 7.6695L2.46976 7.66048L2.3392 7.79555C2.17273 7.9575 2.16822 8.11053 2.31222 8.28151L2.42022 8.40755L4.99427 8.45248L4.74678 8.96551C4.59827 9.27597 4.4992 9.53699 4.4992 9.62704C4.4992 9.90602 4.77827 10.0725 5.02576 9.94202C5.13827 9.88797 5.22822 9.73053 5.55222 9.03299C5.76822 8.56951 6.03827 8.04755 6.15078 7.87197C7.7392 5.40602 10.4392 3.93002 13.3642 3.93002C15.0112 3.93002 16.5188 4.36653 17.9498 5.25751C18.9623 5.88755 20.0108 6.9495 20.6498 7.9935C22.5487 11.0985 22.2877 15.0765 20.0018 17.88C19.6642 18.294 18.8948 19.032 18.4943 19.329C16.9778 20.4495 15.2228 21.03 13.3508 21.03C11.1908 21.03 9.24678 20.274 7.56822 18.7845C7.00124 18.2805 6.91571 18.249 6.69971 18.4605C6.49724 18.6676 6.52422 18.7845 6.85273 19.1265C7.62227 19.932 8.85971 20.7375 10.0207 21.1876C11.6138 21.7996 13.5397 21.957 15.2228 21.6105C18.0892 21.0165 20.4967 19.14 21.7612 16.5076C23.4757 12.948 22.7512 8.69997 19.9567 5.89648C18.5752 4.51504 16.8788 3.63751 14.8717 3.27751C14.2823 3.16951 12.7658 3.14704 12.1268 3.23699Z" stroke="white" stroke-width="0.3"/>
  <path d="M13.1228 6.00448L13.0059 6.09452V12.642L13.1544 12.7815C13.2309 12.858 13.9013 13.4069 14.6393 14.0055C15.8184 14.9549 16.0028 15.09 16.1379 15.09C16.4168 15.09 16.6013 14.7975 16.4708 14.5545C16.4483 14.5095 15.8229 13.9785 15.0758 13.3755L13.7259 12.282V6.10345L13.6224 6.00899C13.4873 5.88294 13.2803 5.88294 13.1228 6.00448Z" stroke="white" stroke-width="0.3"/>
  <path d="M0.458463 11.895C0.246975 12.093 0.314464 12.426 0.589024 12.5205C0.683488 12.552 1.29549 12.57 2.38902 12.57H4.04954V12.7815C4.04954 13.1236 4.13498 13.7985 4.18902 13.9065C4.29702 14.1135 4.62995 14.145 4.79651 13.9605C4.88646 13.8615 4.89098 13.776 4.83702 13.074L4.80102 12.57H6.30851C7.86102 12.57 8.05898 12.552 8.14451 12.39C8.22554 12.237 8.19846 12.0076 8.08595 11.904L7.98246 11.805H4.26995C0.602463 11.805 0.557535 11.805 0.458463 11.895Z" stroke="white" stroke-width="0.3"/>
  <path d="M20.0832 12.237C19.9888 12.3315 19.9752 12.381 19.9978 12.516C20.0293 12.7275 20.1642 12.84 20.3938 12.84C20.6232 12.84 20.7267 12.7815 20.7808 12.6151C20.8392 12.453 20.7762 12.228 20.6547 12.165C20.4882 12.0751 20.2093 12.1111 20.0832 12.237Z" stroke="white" stroke-width="0.3"/>
  <path d="M2.25522 15.972C2.07522 16.1205 2.06168 16.3455 2.22824 16.5075C2.33173 16.6155 2.36773 16.62 2.83573 16.62C3.26773 16.62 3.33973 16.611 3.42076 16.5301C3.6142 16.3365 3.57368 16.035 3.33071 15.9135C3.26322 15.8821 3.04722 15.855 2.80424 15.855C2.4262 15.855 2.38117 15.864 2.25522 15.972Z" stroke="white" stroke-width="0.3"/>
  <path d="M5.15161 15.909C4.92207 16.044 4.87714 16.3275 5.06165 16.5075L5.16965 16.62H9.68309L9.81807 16.485C9.93058 16.368 9.94863 16.323 9.92607 16.2015C9.90812 16.1205 9.85858 16.017 9.80463 15.9675C9.71909 15.882 9.65161 15.8775 7.47807 15.8685C5.84463 15.8595 5.21909 15.8685 5.15161 15.909Z" stroke="white" stroke-width="0.3"/>
  <path d="M13.1208 18.9645C12.9589 19.0904 12.9498 19.437 13.1074 19.581C13.2514 19.716 13.4989 19.7115 13.6248 19.5765C13.7733 19.419 13.7644 19.0859 13.6069 18.9645C13.5394 18.9104 13.4314 18.8699 13.3639 18.8699C13.2964 18.8699 13.1884 18.9104 13.1208 18.9645Z" stroke="white" stroke-width="0.3"/>
</svg>