<svg width="24" height="24" viewBox="0 0 24 24" fill="none" xmlns="http://www.w3.org/2000/svg">
<rect x="11.3672" y="0.856934" width="1.17295" height="21.8951" fill="white"/>
<rect x="12.5391" y="5.14209" width="1.17295" height="6.06025" transform="rotate(135 12.5391 5.14209)" fill="white"/>
<rect width="1.17295" height="6.06025" transform="matrix(-0.707107 -0.707107 -0.707107 0.707107 16.4492 1.68652)" fill="white"/>
<rect x="11.3281" y="18.4985" width="1.17295" height="6.06025" transform="rotate(-45 11.3281 18.4985)" fill="white"/>
<rect width="1.17295" height="6.06025" transform="matrix(0.707107 0.707107 0.707107 -0.707107 7.41797 21.9545)" fill="white"/>
<rect x="21.7246" y="17.1323" width="1.17295" height="21.8951" transform="rotate(120 21.7246 17.1323)" fill="white"/>
<rect x="17.4316" y="16.0054" width="1.17295" height="6.06025" transform="rotate(-105 17.4316 16.0054)" fill="white"/>
<rect width="1.17295" height="6.06025" transform="matrix(0.965926 -0.258819 -0.258819 -0.965926 18.4668 21.1191)" fill="white"/>
<rect x="6.4668" y="8.27832" width="1.17295" height="6.06025" transform="rotate(75 6.4668 8.27832)" fill="white"/>
<rect width="1.17295" height="6.06025" transform="matrix(-0.965926 0.258819 0.258819 0.965926 5.42773 3.16406)" fill="white"/>
<rect x="20.9629" y="5.99121" width="1.17295" height="21.8951" transform="rotate(60 20.9629 5.99121)" fill="white"/>
<rect x="17.8379" y="9.14941" width="1.17295" height="6.06025" transform="rotate(-165 17.8379 9.14941)" fill="white"/>
<rect width="1.17295" height="6.06025" transform="matrix(0.258819 -0.965926 -0.965926 -0.258819 22.7871 10.8076)" fill="white"/>
<rect x="5.66602" y="14.7788" width="1.17295" height="6.06025" transform="rotate(15 5.66602 14.7788)" fill="white"/>
<rect width="1.17295" height="6.06025" transform="matrix(-0.258819 0.965926 0.965926 0.258819 0.716797 13.1211)" fill="white"/>
</svg>
