<svg xmlns="http://www.w3.org/2000/svg" width="24" height="24" viewBox="0 0 24 24" fill="none">
                      <path d="M11.8262 1.81232C10.8439 2.09144 3.97576 4.22872 3.89001 4.28056C3.81985 4.32442 3.73019 4.40816 3.68342 4.46797L3.60156 4.57962V9.31273C3.60156 12.9812 3.61326 14.1057 3.65224 14.313C4.02254 16.3187 5.5817 18.2606 8.36481 20.1786C9.694 21.0917 11.6858 22.2002 12.0016 22.2002C12.3173 22.2002 14.3091 21.0917 15.6383 20.1786C18.4214 18.2606 19.9806 16.3187 20.3509 14.313C20.3899 14.1057 20.4016 12.9812 20.4016 9.31273V4.57962L20.3197 4.46797C20.2729 4.40816 20.1833 4.32442 20.1131 4.28056C19.9611 4.18884 12.2744 1.82827 12.06 1.80434C11.9743 1.79637 11.869 1.80036 11.8262 1.81232ZM15.6383 4.12505L19.2517 5.23356V9.46824C19.2517 12.2236 19.2361 13.8106 19.2088 14.0139C19.123 14.6798 18.7644 15.4933 18.2577 16.1871C17.9342 16.6257 17.1585 17.4511 16.6479 17.8977C15.6734 18.755 14.3988 19.6283 12.9566 20.4338C12.2354 20.8365 12.0366 20.9322 11.947 20.9083C11.7053 20.8445 9.93957 19.8077 9.09762 19.2375C7.71386 18.2965 6.45483 17.1521 5.74541 16.1871C5.23869 15.4933 4.88008 14.6798 4.79432 14.0139C4.76704 13.8106 4.75145 12.2236 4.75145 9.46824V5.23356L8.32973 4.13302C10.2943 3.52693 11.9314 3.02849 11.9626 3.02451C11.9938 3.02052 13.6465 3.51497 15.6383 4.12505Z" fill="white"/>
                      <path d="M11.8262 1.81232C10.8439 2.09144 3.97576 4.22872 3.89001 4.28056C3.81985 4.32442 3.73019 4.40816 3.68342 4.46797L3.60156 4.57962V9.31273C3.60156 12.9812 3.61326 14.1057 3.65224 14.313C4.02254 16.3187 5.5817 18.2606 8.36481 20.1786C9.694 21.0917 11.6858 22.2002 12.0016 22.2002C12.3173 22.2002 14.3091 21.0917 15.6383 20.1786C18.4214 18.2606 19.9806 16.3187 20.3509 14.313C20.3899 14.1057 20.4016 12.9812 20.4016 9.31273V4.57962L20.3197 4.46797C20.2729 4.40816 20.1833 4.32442 20.1131 4.28056C19.9611 4.18884 12.2744 1.82827 12.06 1.80434C11.9743 1.79637 11.869 1.80036 11.8262 1.81232ZM15.6383 4.12505L19.2517 5.23356V9.46824C19.2517 12.2236 19.2361 13.8106 19.2088 14.0139C19.123 14.6798 18.7644 15.4933 18.2577 16.1871C17.9342 16.6257 17.1585 17.4511 16.6479 17.8977C15.6734 18.755 14.3988 19.6283 12.9566 20.4338C12.2354 20.8365 12.0366 20.9322 11.947 20.9083C11.7053 20.8445 9.93957 19.8077 9.09762 19.2375C7.71386 18.2965 6.45483 17.1521 5.74541 16.1871C5.23869 15.4933 4.88008 14.6798 4.79432 14.0139C4.76704 13.8106 4.75145 12.2236 4.75145 9.46824V5.23356L8.32973 4.13302C10.2943 3.52693 11.9314 3.02849 11.9626 3.02451C11.9938 3.02052 13.6465 3.51497 15.6383 4.12505Z"/>
                      <path d="M9.30078 11.3999L12.0008 14.3999L15.0008 9.8999" stroke="white" stroke-linecap="round"/>
                      </svg>
