<svg width="24" height="24" viewBox="0 0 24 24" fill="none" xmlns="http://www.w3.org/2000/svg">
<mask id="mask0_1105_5393" style="mask-type:luminance" maskUnits="userSpaceOnUse" x="0" y="0" width="24" height="24">
<path d="M24 0H0V24H24V0Z" fill="white"/>
</mask>
<g mask="url(#mask0_1105_5393)">
<path d="M8.39081 2.10469C8.05331 2.21249 7.80481 2.3719 7.53761 2.6578C7.12511 3.1031 6.98451 3.55309 6.98451 4.46249V5.01099L4.23291 5.02499L1.47671 5.0391L1.15331 5.19849C0.79231 5.37189 0.459511 5.67659 0.267311 6.00469C-0.0138893 6.48279 -0.00458847 6.13599 0.00951153 13.6219L0.0236106 20.461L0.12671 20.7094C0.35171 21.2625 0.806411 21.6938 1.37361 21.8906C1.63611 21.9844 1.76261 21.9844 11.9907 21.9844C23.4939 21.9844 22.5517 22.0125 23.0954 21.661C23.4189 21.45 23.7236 21.0844 23.8736 20.7094L23.9767 20.461L23.9907 13.6219C24.0048 6.13599 24.0142 6.48279 23.7329 6.00469C23.5454 5.68129 23.2126 5.37659 22.8517 5.19849L22.5236 5.0391L19.772 5.02499L17.0157 5.01099V4.46249C17.0157 3.82029 16.9314 3.37029 16.7486 3.04219C16.5704 2.70939 16.1017 2.28279 15.7642 2.14689L15.4923 2.0391L12.0704 2.02969C8.90171 2.02029 8.62981 2.02499 8.39081 2.10469ZM15.3986 3.08909C15.5017 3.13599 15.6423 3.2344 15.7126 3.3094C15.9376 3.5531 15.9845 3.73599 15.9845 4.40629V5.01559H12.0001H8.01581V4.38279C8.01581 3.68439 8.05791 3.52499 8.32981 3.27189C8.62041 2.99529 8.49861 3.00469 12.0001 3.00469C15.0282 2.99999 15.2204 3.00469 15.3986 3.08909ZM22.4579 6.13129C22.6407 6.22499 22.7486 6.3235 22.8517 6.4922L22.9923 6.71719V8.99999V11.2828L22.8517 11.5078C22.7486 11.6766 22.6407 11.775 22.4579 11.8688L22.2095 12H18.1126H14.0157V11.7422C14.0157 11.5969 13.9876 11.4094 13.9501 11.325C13.8189 11.011 13.847 11.0156 12.0001 11.0156C10.1532 11.0156 10.1814 11.011 10.0501 11.325C10.0126 11.4094 9.98451 11.5969 9.98451 11.7422V12H5.88761H1.79081L1.54231 11.8688C1.35951 11.775 1.25171 11.6766 1.14861 11.5078L1.00791 11.2828V8.99999V6.71719L1.14861 6.4922C1.25171 6.3235 1.35951 6.22499 1.54231 6.13129L1.79081 5.99999H12.0001H22.2095L22.4579 6.13129ZM12.9845 13.0078V14.0156H12.0001H11.0157V13.0078V12H12.0001H12.9845V13.0078ZM1.42041 12.8953C1.68291 12.9797 1.91731 12.9844 5.84081 12.9844H9.98451V13.7578C9.98451 14.6297 10.0267 14.8078 10.2611 14.925C10.472 15.0375 13.5282 15.0375 13.7392 14.925C13.9736 14.8078 14.0157 14.6297 14.0157 13.7578V12.9844H18.1595C22.0829 12.9844 22.3173 12.9797 22.5798 12.8953C22.7298 12.8485 22.8892 12.7922 22.9361 12.7735C23.0157 12.7406 23.0157 12.9094 23.0064 16.5094L22.9923 20.2828L22.8517 20.5078C22.7486 20.6766 22.6407 20.775 22.4579 20.8688L22.2095 21H12.0001H1.79081L1.54231 20.8688C1.35951 20.775 1.25171 20.6766 1.14861 20.5078L1.00791 20.2828L0.993911 16.5094C0.984511 12.9094 0.98451 12.7406 1.06421 12.7735C1.11111 12.7922 1.27041 12.8485 1.42041 12.8953Z" fill="white" stroke="white" stroke-width="0.1"/>
</g>
</svg>

