<svg width="25" height="24" viewBox="0 0 25 24" fill="none" xmlns="http://www.w3.org/2000/svg">
<path d="M5.68891 6.37994C5.49891 6.37994 5.29891 6.29994 5.15891 6.15994C4.86891 5.86994 4.86891 5.38994 5.15891 5.09994L8.78891 1.46994C9.07891 1.17994 9.55891 1.17994 9.84891 1.46994C10.1389 1.75994 10.1389 2.23994 9.84891 2.52994L6.21891 6.15994C6.06891 6.29994 5.87891 6.37994 5.68891 6.37994Z" fill="white"/>
<path d="M19.3111 6.37994C19.1211 6.37994 18.9311 6.30994 18.7811 6.15994L15.1511 2.52994C14.8611 2.23994 14.8611 1.75994 15.1511 1.46994C15.4411 1.17994 15.9211 1.17994 16.2111 1.46994L19.8411 5.09994C20.1311 5.38994 20.1311 5.86994 19.8411 6.15994C19.7011 6.29994 19.5011 6.37994 19.3111 6.37994Z" fill="white"/>
<path d="M20.71 10.6001C20.64 10.6001 20.57 10.6001 20.5 10.6001H20.27H4.5C3.8 10.6101 3 10.6101 2.42 10.0301C1.96 9.5801 1.75 8.8801 1.75 7.8501C1.75 5.1001 3.76 5.1001 4.72 5.1001H20.28C21.24 5.1001 23.25 5.1001 23.25 7.8501C23.25 8.8901 23.04 9.5801 22.58 10.0301C22.06 10.5501 21.36 10.6001 20.71 10.6001ZM4.72 9.1001H20.51C20.96 9.1101 21.38 9.1101 21.52 8.9701C21.59 8.9001 21.74 8.6601 21.74 7.8501C21.74 6.7201 21.46 6.6001 20.27 6.6001H4.72C3.53 6.6001 3.25 6.7201 3.25 7.8501C3.25 8.6601 3.41 8.9001 3.47 8.9701C3.61 9.1001 4.04 9.1001 4.48 9.1001H4.72Z" fill="white"/>
<path d="M10.2617 18.3C9.85172 18.3 9.51172 17.96 9.51172 17.55V14C9.51172 13.59 9.85172 13.25 10.2617 13.25C10.6717 13.25 11.0117 13.59 11.0117 14V17.55C11.0117 17.97 10.6717 18.3 10.2617 18.3Z" fill="white"/>
<path d="M14.8594 18.3C14.4494 18.3 14.1094 17.96 14.1094 17.55V14C14.1094 13.59 14.4494 13.25 14.8594 13.25C15.2694 13.25 15.6094 13.59 15.6094 14V17.55C15.6094 17.97 15.2694 18.3 14.8594 18.3Z" fill="white"/>
<path d="M15.3907 22.75H9.36073C5.78073 22.75 4.98073 20.62 4.67073 18.77L3.26073 10.12C3.19073 9.71 3.47073 9.33 3.88073 9.26C4.29073 9.19 4.67073 9.47 4.74073 9.88L6.15073 18.52C6.44073 20.29 7.04073 21.25 9.36073 21.25H15.3907C17.9607 21.25 18.2507 20.35 18.5807 18.61L20.2607 9.86C20.3407 9.45 20.7307 9.18 21.1407 9.27C21.5507 9.35 21.8107 9.74 21.7307 10.15L20.0507 18.9C19.6607 20.93 19.0107 22.75 15.3907 22.75Z" fill="white"/>
</svg>
