<svg width="24" height="24" viewBox="0 0 24 24" fill="none" xmlns="http://www.w3.org/2000/svg">
<path d="M11.75 22.5C5.82 22.5 1 17.68 1 11.75C1 5.82 5.82 1 11.75 1C17.68 1 22.5 5.82 22.5 11.75C22.5 17.68 17.68 22.5 11.75 22.5ZM11.75 2.5C6.65 2.5 2.5 6.65 2.5 11.75C2.5 16.85 6.65 21 11.75 21C16.85 21 21 16.85 21 11.75C21 6.65 16.85 2.5 11.75 2.5Z" fill="#BDBDBD"/>
<path d="M14.2741 7.81674C15.0798 7.52008 15.8601 8.30978 15.5538 9.11185L12.9109 16.0336C12.5902 16.8736 11.4101 16.8965 11.057 16.0696L10.0811 13.7838C9.98189 13.5515 9.79847 13.3653 9.56768 13.2627L7.25082 12.2325C6.43049 11.8678 6.46911 10.6906 7.31158 10.3804L14.2741 7.81674Z" stroke="#BDBDBD" stroke-width="1.3"/>
</svg>
