<svg width="24" height="24" viewBox="0 0 24 24" fill="none" xmlns="http://www.w3.org/2000/svg">
<path d="M17.5814 21H6.4186C2.34419 21 0 18.9568 0 15.4054V8.59459C0 5.04324 2.34419 3 6.4186 3H17.5814C21.6558 3 24 5.04324 24 8.59459V15.4054C24 18.9568 21.6558 21 17.5814 21ZM6.4186 4.45946C3.22605 4.45946 1.67442 5.81189 1.67442 8.59459V15.4054C1.67442 18.1881 3.22605 19.5405 6.4186 19.5405H17.5814C20.774 19.5405 22.3256 18.1881 22.3256 15.4054V8.59459C22.3256 5.81189 20.774 4.45946 17.5814 4.45946H6.4186Z" fill="#BDBDBD"/>
<path d="M12.0015 13.87C11.1615 13.87 10.3115 13.61 9.66151 13.08L3.00146 5.5C2.68146 5.24 2.62146 4.76999 2.88146 4.44999C3.14146 4.12999 3.61146 4.07 3.93146 4.33L10.5915 11.91C11.3515 12.52 12.6415 12.52 13.4015 11.91L20.002 4.32996C20.322 4.06996 20.802 4.11995 21.052 4.44995C21.312 4.76995 21.262 5.24995 20.932 5.49995L14.3315 13.08C13.6915 13.61 12.8415 13.87 12.0015 13.87Z" fill="#BDBDBD"/>
<path d="M20.9321 18.37L14.929 10.83L13.999 12L20.0021 19.54C20.3221 19.8 20.7921 19.74 21.0521 19.42C21.3121 19.1 21.2521 18.63 20.9321 18.37Z" fill="#BDBDBD"/>
<path d="M3.93164 19.54L9.99902 12L9.06902 10.83L3.00163 18.37C2.67163 18.62 2.62164 19.1 2.88164 19.42C3.13164 19.75 3.61164 19.8 3.93164 19.54Z" fill="#BDBDBD"/>
</svg>
