<svg width="24" height="24" viewBox="0 0 24 24" fill="none" xmlns="http://www.w3.org/2000/svg">
<path d="M11.9972 13.5916C9.95414 13.5916 8.28516 11.9322 8.28516 9.87959C8.28516 7.82694 9.95414 6.17714 11.9972 6.17714C14.0403 6.17714 15.7092 7.83653 15.7092 9.88918C15.7092 11.9418 14.0403 13.5916 11.9972 13.5916ZM11.9972 7.61591C10.7503 7.61591 9.72393 8.63265 9.72393 9.88918C9.72393 11.1457 10.7407 12.1624 11.9972 12.1624C13.2537 12.1624 14.2705 11.1457 14.2705 9.88918C14.2705 8.63265 13.2441 7.61591 11.9972 7.61591Z" fill="#BDBDBD"/>
<path d="M11.9978 23.5C11.0389 23.0204 9.14905 21.2939 8.0364 20.2292C5.20681 17.5051 2.07987 13.16 3.25966 7.99C4.32436 3.29959 8.42007 1.19898 11.9978 1.19898C11.9978 1.19898 11.9978 1.19898 12.0074 1.19898C15.5852 1.19898 19.6809 3.29959 20.7456 7.99959C21.9158 13.1696 18.7888 17.5051 15.9593 20.2292C14.8466 21.2939 12.9573 23.0204 11.9978 23.5ZM11.9978 2.63776C9.2066 2.63776 5.61926 4.12449 4.66966 8.30653C3.63375 12.8243 6.47293 16.7186 9.04354 19.1837C11.9978 22.0167 11.9978 22.0365 14.9617 19.1837C17.5227 16.7186 20.3619 12.8243 19.3452 8.30653C18.386 4.12449 14.7891 2.63776 11.9978 2.63776Z" fill="#BDBDBD"/>
</svg>
