<svg width="24" height="24" viewBox="0 0 24 24" fill="none" xmlns="http://www.w3.org/2000/svg">
<path fill-rule="evenodd" clip-rule="evenodd" d="M4.00027 7.55909V4.42482C3.98063 3.10552 5.03403 2.01999 6.35332 2H18.1186C19.4379 2.01999 20.4913 3.10552 20.4716 4.42482V7.55909C20.4726 7.87891 20.3489 8.18653 20.1269 8.41677L14.9337 12.5887C14.7117 12.819 14.5881 13.1266 14.589 13.4464V19.5749C14.5915 20.0293 14.3406 20.4472 13.9384 20.6585L11.5853 21.8704C11.2156 22.0553 10.776 22.0326 10.4273 21.8107C10.0785 21.5887 9.87189 21.2 9.8829 20.7868V13.4464C9.88381 13.1266 9.76017 12.819 9.53818 12.5887L4.34499 8.4156C4.12328 8.18565 3.99967 7.87851 4.00027 7.55909Z" stroke="black" stroke-linecap="round" stroke-linejoin="round"/>
</svg>
