<svg width="48" height="48" viewBox="0 0 48 48" fill="none" xmlns="http://www.w3.org/2000/svg">
<path d="M28.4004 24.9H18.4004C17.5804 24.9 16.9004 24.22 16.9004 23.4C16.9004 22.58 17.5804 21.9 18.4004 21.9H28.4004C29.2204 21.9 29.9004 22.58 29.9004 23.4C29.9004 24.22 29.2204 24.9 28.4004 24.9Z" fill="#1C1C1C"/>
<path d="M23.4004 29.9C22.5804 29.9 21.9004 29.22 21.9004 28.4V18.4C21.9004 17.58 22.5804 16.9 23.4004 16.9C24.2204 16.9 24.9004 17.58 24.9004 18.4V28.4C24.9004 29.22 24.2204 29.9 23.4004 29.9Z" fill="#1C1C1C"/>
<path d="M23 43.5C11.7 43.5 2.5 34.3 2.5 23C2.5 11.7 11.7 2.5 23 2.5C34.3 2.5 43.5 11.7 43.5 23C43.5 34.3 34.3 43.5 23 43.5ZM23 5.5C13.34 5.5 5.5 13.36 5.5 23C5.5 32.64 13.34 40.5 23 40.5C32.66 40.5 40.5 32.64 40.5 23C40.5 13.36 32.66 5.5 23 5.5Z" fill="#1C1C1C"/>
<path d="M43.9999 45.5C43.6199 45.5 43.2399 45.36 42.9399 45.06L38.9399 41.06C38.3599 40.48 38.3599 39.52 38.9399 38.94C39.5199 38.36 40.4799 38.36 41.0599 38.94L45.0599 42.94C45.6399 43.52 45.6399 44.48 45.0599 45.06C44.7599 45.36 44.3799 45.5 43.9999 45.5Z" fill="#1C1C1C"/>
</svg>
