<svg width="112" height="56" viewBox="0 0 112 56" fill="none" xmlns="http://www.w3.org/2000/svg">
<g clip-path="url(#clip0_1050_25010)">
<mask id="mask0_1050_25010" style="mask-type:luminance" maskUnits="userSpaceOnUse" x="0" y="0" width="112" height="57">
<path d="M0.976562 56.5626H111.209V0.127026H0.976562V56.5626Z" fill="white"/>
</mask>
<g mask="url(#mask0_1050_25010)">
<path fill-rule="evenodd" clip-rule="evenodd" d="M60.2037 26.0727L51.814 26.0879L56.0401 15.177L60.2027 25.995V26.0737L60.2037 26.0727ZM16.2474 14.4533H23.0148C30.5591 14.4533 30.8278 21.8901 28.1844 24.3821C26.8798 25.6095 25.0846 26.0478 23.3246 26.0478H16.2445V14.4529L16.2474 14.4533ZM99.215 46.067C102.46 46.067 102.46 41.0245 99.215 41.0001H83.9213L83.9452 11.9614C83.9213 8.71597 79.0443 8.71597 79.0443 11.9614L79.0214 44.2689C79.0214 45.2037 79.6986 46.0675 80.6534 46.0675H99.216L99.215 46.067ZM28.5606 45.1577C28.7468 45.4377 28.9574 45.6463 29.1665 45.8095C29.3297 45.9038 29.4714 45.9981 29.6327 46.067C31.572 46.9075 34.1157 44.6437 32.6211 42.4029L24.4074 30.4024C26.7879 30.4024 30.8034 29.2356 32.5771 26.4108C33.6506 24.7539 34.234 22.8864 34.3737 20.8308C34.5369 18.1698 33.7908 15.8371 32.1105 13.8289C30.1482 11.4693 27.3019 10.1857 23.5694 9.95364H12.9712C11.1741 9.95364 11.2444 10.8864 11.2694 12.0058V43.7808C11.2694 47.0252 16.1477 47.0252 16.1702 43.7808V30.4757H18.7623L28.5641 45.1587L28.5606 45.1577ZM58.9528 11.1889C58.2052 9.97758 57.3423 9.30036 56.0812 9.30036C54.587 9.30036 53.5125 10.2097 52.7199 11.5407C52.4175 12.0542 52.136 12.6836 51.8785 13.4072L40.4644 42.8221C39.2966 45.8569 43.8481 47.6096 45.0398 44.5983L50.3853 30.5895H61.8923L67.145 44.5983C68.3353 47.6096 72.8863 45.8569 71.7209 42.8221L60.0233 13.4561C59.6955 12.5678 59.3461 11.7987 58.9484 11.1898M5.93313 5.09676H105.954V50.128H5.93313V5.09676ZM0.958984 52.8105C0.958984 54.0941 1.96456 55.0987 3.24719 55.0987H108.642C109.903 55.0987 110.953 54.0941 110.953 52.8105V2.38492C110.953 1.12624 109.903 0.0981789 108.642 0.0981789H3.24719C1.96456 0.0981789 0.958984 1.12624 0.958984 2.38492V52.8105Z" fill="#FE5100"/>
</g>
</g>
<defs>
<clipPath id="clip0_1050_25010">
<rect width="112" height="56" fill="white"/>
</clipPath>
</defs>
</svg>
