<svg width="56" height="56" viewBox="0 0 56 56" fill="none" xmlns="http://www.w3.org/2000/svg">
<rect x="26.5273" y="2" width="2.73689" height="51.0885" fill="#0075FF"/>
<rect x="29.2598" y="11.999" width="2.73689" height="14.1406" transform="rotate(135 29.2598 11.999)" fill="#0075FF"/>
<rect width="2.73689" height="14.1406" transform="matrix(-0.707107 -0.707107 -0.707107 0.707107 38.3828 3.93536)" fill="#0075FF"/>
<rect x="26.4355" y="43.1641" width="2.73689" height="14.1406" transform="rotate(-45 26.4355 43.1641)" fill="#0075FF"/>
<rect width="2.73689" height="14.1406" transform="matrix(0.707107 0.707107 0.707107 -0.707107 17.3125 51.2277)" fill="#0075FF"/>
<rect x="50.7051" y="39.9763" width="2.73689" height="51.0885" transform="rotate(120 50.7051 39.9763)" fill="#0075FF"/>
<rect x="40.6797" y="37.3463" width="2.73689" height="14.1406" transform="rotate(-105 40.6797 37.3463)" fill="#0075FF"/>
<rect width="2.73689" height="14.1406" transform="matrix(0.965926 -0.258819 -0.258819 -0.965926 43.0977 49.2788)" fill="#0075FF"/>
<rect x="15.1016" y="19.3168" width="2.73689" height="14.1406" transform="rotate(75 15.1016 19.3168)" fill="#0075FF"/>
<rect width="2.73689" height="14.1406" transform="matrix(-0.965926 0.258819 0.258819 0.965926 12.6777 7.38428)" fill="#0075FF"/>
<rect x="48.9199" y="13.9799" width="2.73689" height="51.0885" transform="rotate(60 48.9199 13.9799)" fill="#0075FF"/>
<rect x="41.627" y="21.3489" width="2.73689" height="14.1406" transform="rotate(-165 41.627 21.3489)" fill="#0075FF"/>
<rect width="2.73689" height="14.1406" transform="matrix(0.258819 -0.965926 -0.965926 -0.258819 53.168 25.2178)" fill="#0075FF"/>
<rect x="13.2246" y="34.4846" width="2.73689" height="14.1406" transform="rotate(15 13.2246 34.4846)" fill="#0075FF"/>
<rect width="2.73689" height="14.1406" transform="matrix(-0.258819 0.965926 0.965926 0.258819 1.67773 30.6157)" fill="#0075FF"/>
</svg>
