<svg width="56" height="56" viewBox="0 0 56 56" fill="none" xmlns="http://www.w3.org/2000/svg">
<g id="logos:whatsapp-icon" clip-path="url(#clip0_1232_7971)">
<path id="Vector" d="M1.19406 27.6649C1.19275 32.3699 2.43175 36.9641 4.78769 41.0135L0.96875 54.8489L15.2383 51.1364C19.185 53.2684 23.6071 54.3855 28.1007 54.3858H28.1126C42.9471 54.3858 55.0228 42.408 55.0291 27.6859C55.0319 20.552 52.2346 13.8437 47.1521 8.79676C42.0706 3.75025 35.3123 0.969564 28.1115 0.966309C13.2752 0.966309 1.20041 12.9434 1.19428 27.6649" fill="url(#paint0_linear_1232_7971)"/>
<path id="Vector_2" d="M0.234063 27.6562C0.232531 32.5306 1.51594 37.2891 3.95587 41.4834L0 55.8149L14.7812 51.9693C18.8538 54.1726 23.4393 55.3343 28.1052 55.336H28.1172C43.484 55.336 55.9934 42.9275 56 27.6783C56.0026 20.2881 53.1046 13.3386 47.8406 8.11088C42.576 2.88378 35.576 0.00303876 28.1172 0C12.7479 0 0.240188 12.4068 0.234063 27.6562ZM9.03656 40.7611L8.48466 39.8918C6.16459 36.2313 4.94003 32.0014 4.94178 27.6579C4.94681 14.983 15.3427 4.67101 28.126 4.67101C34.3166 4.67361 40.1345 7.06816 44.5104 11.4127C48.886 15.7577 51.2938 21.5335 51.2923 27.6766C51.2866 40.3515 40.8905 50.6648 28.1172 50.6648H28.1081C23.949 50.6626 19.8699 49.5544 16.3126 47.46L15.4661 46.9619L6.69462 49.2438L9.03656 40.7608V40.7611Z" fill="url(#paint1_linear_1232_7971)"/>
<path id="Vector_3" d="M21.1483 16.0941C20.6263 14.9431 20.0771 14.9199 19.5807 14.8997C19.1743 14.8823 18.7097 14.8836 18.2455 14.8836C17.7808 14.8836 17.0259 15.0571 16.3878 15.7484C15.7491 16.4403 13.9492 18.1125 13.9492 21.5136C13.9492 24.9148 16.4458 28.2016 16.7938 28.6633C17.1423 29.1241 21.6136 36.3269 28.6949 39.0978C34.5802 41.4005 35.7778 40.9425 37.0551 40.827C38.3326 40.712 41.1772 39.1553 41.7576 37.5411C42.3384 35.927 42.3384 34.5435 42.1642 34.2544C41.9901 33.9664 41.5255 33.7934 40.8288 33.4478C40.1318 33.1021 36.7067 31.4297 36.0681 31.1989C35.4294 30.9684 34.965 30.8534 34.5003 31.5456C34.0357 32.2367 32.7016 33.7934 32.2949 34.2544C31.8887 34.7165 31.482 34.774 30.7855 34.4283C30.0884 34.0814 27.8447 33.3523 25.1827 30.9975C23.1116 29.1651 21.7133 26.9024 21.3069 26.2102C20.9004 25.5191 21.2633 25.1444 21.6127 24.8C21.9257 24.4902 22.3096 23.9927 22.6583 23.5892C23.0057 23.1855 23.1216 22.8975 23.3539 22.4365C23.5865 21.975 23.4701 21.5713 23.2962 21.2255C23.1216 20.8798 21.7678 17.4609 21.1483 16.0941Z" fill="white"/>
</g>
<defs>
<linearGradient id="paint0_linear_1232_7971" x1="2703.99" y1="5389.23" x2="2703.99" y2="0.966309" gradientUnits="userSpaceOnUse">
<stop stop-color="#1FAF38"/>
<stop offset="1" stop-color="#60D669"/>
</linearGradient>
<linearGradient id="paint1_linear_1232_7971" x1="2800" y1="5581.49" x2="2800" y2="0" gradientUnits="userSpaceOnUse">
<stop stop-color="#1FAF38"/>
<stop offset="1" stop-color="#60D669"/>
</linearGradient>
<clipPath id="clip0_1232_7971">
<rect width="56" height="56" fill="white"/>
</clipPath>
</defs>
</svg>
